<?xml version="1.0" encoding="utf-8"?>
<!-- Generator: Adobe Illustrator 19.0.0, SVG Export Plug-In . SVG Version: 6.00 Build 0)  -->
<svg version="1.1" id="layer" xmlns="http://www.w3.org/2000/svg" xmlns:xlink="http://www.w3.org/1999/xlink" x="0px" y="0px"
	 viewBox="-153 -46 652 652" style="enable-background:new -153 -46 652 652;" xml:space="preserve">
<style type="text/css">
	.st0{fill:#0078E2;}
</style>
<path class="st0" d="M-87.7,306.1l22-103.7l22.3,103.7H-87.7z M-49.7,184.5h-31.2l-45.9,189.9h24.1l10.6-48h52.9l10.3,48h24.1
	L-49.7,184.5z M63.3,354.1H46.1c-3.4,0-5.9-0.6-7.3-1.9c-1.5-1.3-2.2-3.3-2.2-6.2V184.5H-7.5v20.3h21v142.4c0,9.4,2.3,16.3,6.9,20.6
	c4.6,4.3,10,6.5,16.1,6.5h26.7L63.3,354.1L63.3,354.1z M130.3,354.1h-17.2c-3.4,0-5.9-0.6-7.3-1.9c-1.4-1.3-2.2-3.3-2.2-6.2V184.5
	H59.5v20.3h21v142.4c0,9.4,2.3,16.3,6.9,20.6c4.6,4.3,10,6.5,16.1,6.5h26.7V354.1L130.3,354.1z M227.4,308.8
	c0-15.7-5.9-26.9-17.6-33.4c10-7.1,14.9-17.5,14.9-31.5v-17.1c0-28.2-15.6-42.3-46.7-42.3h-31.5v20.3h34.7c6.9,0,11.9,1.5,15.1,4.6
	c3.2,3.1,4.8,8.1,4.8,14.9v22.3c0,6-1.9,10.8-5.7,14.4c-3.8,3.6-8.5,5.4-14.1,5.4h-26.3v20.3h29c6,0,10.8,1.8,14.4,5.3
	c3.6,3.5,5.4,8.3,5.4,14.2v27.9c0,6.9-1.6,11.9-4.9,15.1c-3.3,3.2-8.3,4.8-15.2,4.8h-37.2v20.3h34.7c16.3,0,28-3.4,35.3-10.2
	c7.2-6.8,10.9-17.7,10.9-32.7L227.4,308.8L227.4,308.8z M352,226.9c0-15-4.2-25.8-12.5-32.4c-8.3-6.6-20.6-9.9-36.9-9.9H250v189.9
	h55.9c16.5,0,28.3-3.3,35.4-9.8c7.1-6.5,10.7-17.5,10.7-33.1V226.9L352,226.9z M323.5,349.4c-3.3,3.2-8.3,4.8-15.2,4.8h-34.7V204.9
	h35c6,0,10.8,1.8,14.4,5.3c3.6,3.5,5.4,8.3,5.4,14.2v109.9C328.4,341.2,326.8,346.2,323.5,349.4z M473.2,226.9
	c0-28.2-15.6-42.3-46.7-42.3h-51.3v189.9h23.6v-73.8h28.2c30.8,0,46.1-14.3,46.1-42.9V226.9L473.2,226.9z M444.9,275.6
	c-3.2,3.2-8.2,4.7-15.1,4.7h-30.9v-75.4h30.9c6.9,0,11.9,1.5,15.1,4.6c3.2,3.1,4.8,8.1,4.8,14.9v36.1
	C449.6,267.4,448,272.4,444.9,275.6z"/>
</svg>
