<svg width="27" height="26" viewBox="0 0 27 26" fill="none" xmlns="http://www.w3.org/2000/svg">
<g clip-path="url(#clip0_1_420)">
<path d="M24.1298 0H1.97099C0.90993 0 0.0499268 0.833768 0.0499268 1.86285V24.1364C0.0499268 25.1656 0.910232 26.0001 1.97099 26.0001H24.1298C25.1907 26.0001 26.0497 25.165 26.0497 24.1364V1.86285C26.0497 0.834071 25.1907 0 24.1298 0ZM7.93231 21.7638H4.00394V10.0251H7.93231V21.7638ZM5.96852 8.42141H5.9421C4.62474 8.42141 3.77078 7.52048 3.77078 6.39257C3.77078 5.24193 4.64983 4.36542 5.9933 4.36542C7.33689 4.36542 8.16335 5.24169 8.18946 6.39257C8.18946 7.52072 7.3372 8.42141 5.96852 8.42141ZM22.093 21.7638H18.1658V15.4832C18.1658 13.9051 17.5968 12.8282 16.1767 12.8282C15.0902 12.8282 14.4453 13.5547 14.1621 14.2561C14.0572 14.5066 14.0312 14.857 14.0312 15.2068V21.7636H10.1048C10.1048 21.7636 10.1562 11.1259 10.1048 10.0249H14.0318V11.6891C14.5531 10.8895 15.4846 9.74874 17.5701 9.74874C20.1549 9.74874 22.093 11.4255 22.093 15.0328V21.7638ZM14.0064 11.7264C14.0131 11.7154 14.0225 11.7022 14.0318 11.6893V11.7264H14.0064Z" fill="white"/>
</g>
<defs>
<clipPath id="clip0_1_420">
<rect width="26" height="26.0001" fill="white" transform="translate(0.0498047)"/>
</clipPath>
</defs>
</svg>
