<svg width="86" height="87" viewBox="0 0 86 87" fill="none" xmlns="http://www.w3.org/2000/svg">
<g clip-path="url(#clip0_76_369)">
<path d="M0 16.625V22H51.0625V62.3125H34.5182C33.3196 57.6927 29.1647 54.25 24.1875 54.25C19.2103 54.25 15.0554 57.6927 13.8568 62.3125H10.75V48.875H5.375V67.6875H13.8568C15.0554 72.3073 19.2103 75.75 24.1875 75.75C29.1647 75.75 33.3196 72.3073 34.5182 67.6875H56.8568C58.0554 72.3073 62.2103 75.75 67.1875 75.75C72.1647 75.75 76.3196 72.3073 77.5182 67.6875H86V45.7682L85.8307 45.3463L80.4557 29.2213L79.8725 27.375H56.4375V16.625H0ZM2.6875 27.375V32.75H26.875V27.375H2.6875ZM56.4375 32.75H76.0052L80.625 46.5234V62.3125H77.5182C76.3196 57.6927 72.1647 54.25 67.1875 54.25C62.2103 54.25 58.0554 57.6927 56.8568 62.3125H56.4375V32.75ZM5.375 38.125V43.5H21.5V38.125H5.375ZM24.1875 59.625C27.1894 59.625 29.5625 61.9981 29.5625 65C29.5625 68.0019 27.1894 70.375 24.1875 70.375C21.1856 70.375 18.8125 68.0019 18.8125 65C18.8125 61.9981 21.1856 59.625 24.1875 59.625ZM67.1875 59.625C70.1894 59.625 72.5625 61.9981 72.5625 65C72.5625 68.0019 70.1894 70.375 67.1875 70.375C64.1856 70.375 61.8125 68.0019 61.8125 65C61.8125 61.9981 64.1856 59.625 67.1875 59.625Z" fill="white"/>
</g>
<defs>
<clipPath id="clip0_76_369">
<rect width="86" height="86" fill="white" transform="translate(0 0.5)"/>
</clipPath>
</defs>
</svg>
