<svg width="238" height="269" viewBox="0 0 238 269" fill="none" xmlns="http://www.w3.org/2000/svg">
<path d="M162.576 201.122C161.08 213.99 153.279 224.409 141.197 229.56C134.427 232.414 125.386 233.978 118.134 233.513C106.977 233.048 96.518 230.284 86.756 225.376C83.379 223.517 78.175 220.032 74.205 216.778C73.226 215.848 73.062 215.383 73.772 214.421C74.084 213.857 74.781 212.825 76.21 210.735C78.389 207.654 78.622 207.247 78.854 206.852C79.551 205.852 80.613 205.761 81.723 206.551C81.875 206.706 81.875 206.706 81.959 206.781C82.107 206.943 82.107 206.943 82.505 207.246C82.916 207.561 83.214 207.711 83.287 207.889C93.748 216.078 105.925 220.727 118.218 221.192C135.281 220.962 147.543 213.29 149.802 201.434C152.128 188.531 141.959 177.267 122.073 170.986C115.808 169.127 100.042 162.83 97.131 161.078C83.502 153.095 77.105 142.617 78.035 129.623C79.43 111.665 96.113 98.299 117.198 98.182C126.557 98.182 135.991 100.133 144.941 103.898C148.169 105.271 153.93 108.392 155.846 109.884C156.996 110.736 157.241 111.665 156.532 112.706C156.296 113.341 155.602 114.287 154.404 116.315C152.657 118.979 152.592 119.09 152.275 119.676C151.653 120.654 150.764 120.732 149.58 120.032C140.014 113.526 129.224 110.27 117.435 110.038C102.792 110.27 91.782 118.998 91.073 130.957C90.927 141.7 98.95 149.526 116.325 155.419C151.664 166.804 165.144 180.105 162.576 201.122ZM119 15.737C141.96 15.737 160.717 37.522 161.646 64.832H76.409C77.229 37.522 96.041 15.737 119 15.737ZM238.001 70.006C238.001 67.156 235.795 64.832 232.98 64.832H232.796H177.695C176.301 28.8 150.527 0 119 0C87.454 0 61.747 28.8 60.372 64.832H5.04C2.265 64.895 0.0630007 67.168 0.0630007 70.006C0.0630007 70.17 0.0630007 70.242 0.0630007 70.406H0L7.859 244.204C7.859 244.674 7.951 245.148 7.951 245.713C7.951 245.823 7.966 245.857 7.966 246.064V246.33L8.024 246.422C9.207 258.539 17.961 268.199 29.925 268.672V268.764H205.434C205.526 268.764 205.58 268.764 205.671 268.764C205.807 268.764 205.807 268.764 205.907 268.764H206.271V268.672C218.405 268.377 228.34 258.539 229.287 246.289L229.34 246.064C229.34 245.949 229.34 245.824 229.34 245.713C229.34 245.359 229.432 245.134 229.432 244.766L238.001 70.242C238.001 70.178 238.001 70.079 238.001 70.006Z" fill="white"/>
</svg>
