<svg width="88" height="87" viewBox="0 0 88 87" fill="none" xmlns="http://www.w3.org/2000/svg">
<path d="M44 7.25C24.0118 7.25 7.75 23.5118 7.75 43.5V58.5184C7.75 62.2304 11.0016 65.25 15 65.25H18.625C19.5864 65.25 20.5084 64.8681 21.1883 64.1883C21.8681 63.5084 22.25 62.5864 22.25 61.625V42.9816C22.25 42.0202 21.8681 41.0982 21.1883 40.4184C20.5084 39.7385 19.5864 39.3566 18.625 39.3566H15.3335C17.349 25.3279 29.4203 14.5 44 14.5C58.5797 14.5 70.651 25.3279 72.6665 39.3566H69.375C68.4136 39.3566 67.4916 39.7385 66.8117 40.4184C66.1319 41.0982 65.75 42.0202 65.75 42.9816V65.25C65.75 69.2484 62.4984 72.5 58.5 72.5H51.25V68.875H36.75V79.75H58.5C66.4968 79.75 73 73.2468 73 65.25C76.9984 65.25 80.25 62.2304 80.25 58.5184V43.5C80.25 23.5118 63.9882 7.25 44 7.25Z" fill="white"/>
</svg>
