<svg width="651" height="751" viewBox="0 0 651 751" fill="none" xmlns="http://www.w3.org/2000/svg">
<path d="M570.047 160.406C564.985 157.79 560.057 154.922 555.281 151.813C541.395 142.632 528.663 131.815 517.359 119.594C489.078 87.2344 478.516 54.4063 474.625 31.4219H474.781C471.531 12.3438 472.875 0 473.078 0H344.266V498.094C344.266 504.781 344.266 511.391 343.984 517.922C343.984 518.734 343.906 519.484 343.859 520.359C343.859 520.719 343.859 521.094 343.781 521.469C343.781 521.562 343.781 521.656 343.781 521.75C342.423 539.622 336.695 556.886 327.099 572.023C317.503 587.161 304.334 599.709 288.75 608.563C272.508 617.802 254.139 622.649 235.453 622.625C175.437 622.625 126.797 573.688 126.797 513.25C126.797 452.813 175.437 403.875 235.453 403.875C246.814 403.864 258.105 405.652 268.906 409.172L269.062 278.016C236.271 273.78 202.958 276.386 171.225 285.669C139.491 294.953 110.026 310.712 84.6875 331.953C62.4854 351.244 43.82 374.261 29.5312 399.969C24.0937 409.344 3.5781 447.016 1.09373 508.156C-0.468772 542.859 9.9531 578.813 14.9219 593.672V593.984C18.0469 602.734 30.1562 632.594 49.8906 657.766C65.8037 677.957 84.6045 695.695 105.687 710.406V710.094L106 710.406C168.359 752.781 237.5 750 237.5 750C249.469 749.516 289.562 750 335.094 728.422C385.594 704.5 414.344 668.859 414.344 668.859C432.711 647.564 447.315 623.295 457.531 597.094C469.187 566.453 473.078 529.703 473.078 515.016V250.766C474.641 251.703 495.453 265.469 495.453 265.469C495.453 265.469 525.437 284.688 572.219 297.203C605.781 306.109 651 307.984 651 307.984V180.109C635.156 181.828 602.984 176.828 570.047 160.406Z" fill="white"/>
</svg>
