<svg width="27" height="26" viewBox="0 0 27 26" fill="none" xmlns="http://www.w3.org/2000/svg">
<g clip-path="url(#clip0_1_411)">
<path d="M23.4264 0H2.62637C1.19637 0 0.0263672 1.17 0.0263672 2.6V23.4C0.0263672 24.83 1.19637 26 2.62637 26H23.4264C24.8564 26 26.0264 24.83 26.0264 23.4V2.6C26.0264 1.17 24.8564 0 23.4264 0ZM20.4364 9.49C20.3064 15.47 16.5364 19.63 10.8164 19.89C8.47637 20.02 6.78637 19.24 5.22637 18.33C6.91637 18.5901 9.12637 17.9401 10.2964 16.9C8.60637 16.77 7.56637 15.86 7.04637 14.43C7.56637 14.56 8.08637 14.43 8.47637 14.43C6.91637 13.91 5.87637 13 5.74637 10.92C6.13637 11.18 6.65637 11.31 7.17637 11.31C6.00637 10.66 5.22637 8.19 6.13637 6.63C7.82637 8.45 9.90637 10.01 13.2864 10.27C12.3764 6.63 17.3164 4.68 19.2664 7.15C20.1764 7.02 20.8264 6.63 21.4764 6.37C21.2164 7.28 20.6964 7.8 20.0464 8.32C20.6964 8.19 21.3464 8.06 21.8664 7.8C21.7364 8.45 21.0864 8.97 20.4364 9.49Z" fill="white"/>
</g>
<defs>
<clipPath id="clip0_1_411">
<rect width="26" height="26" fill="white" transform="translate(0.0263672)"/>
</clipPath>
</defs>
</svg>
