<svg width="89" height="89" viewBox="0 0 89 89" fill="none" xmlns="http://www.w3.org/2000/svg">
<path d="M11.125 17.1621L44.5167 7.41663L77.875 17.1621V37.1463C77.875 58.1503 64.4323 74.9435 44.5056 81.5833C24.5733 74.9454 11.125 58.1466 11.125 37.1371V17.1621Z" stroke="white" stroke-width="7.41667" stroke-linejoin="round"/>
<path d="M44.5 42.6458C49.6201 42.6458 53.7708 38.4951 53.7708 33.375C53.7708 28.2548 49.6201 24.1041 44.5 24.1041C39.3799 24.1041 35.2292 28.2548 35.2292 33.375C35.2292 38.4951 39.3799 42.6458 44.5 42.6458Z" stroke="white" stroke-width="7.41667" stroke-linecap="round" stroke-linejoin="round"/>
<path d="M59.3333 57.4792C59.3333 53.5452 57.7705 49.7722 54.9888 46.9905C52.207 44.2087 48.434 42.6459 44.5 42.6459C40.566 42.6459 36.793 44.2087 34.0113 46.9905C31.2295 49.7722 29.6667 53.5452 29.6667 57.4792" stroke="white" stroke-width="7.41667" stroke-linecap="round" stroke-linejoin="round"/>
</svg>
