<svg width="2500" height="2372" viewBox="0 0 2500 2372" fill="none" xmlns="http://www.w3.org/2000/svg">
<g clip-path="url(#clip0_24_150)">
<path d="M448.92 2069.39C439.141 2065.04 432.078 2060.15 443.487 2050.37C450.55 2044.94 458.156 2040.05 465.762 2035.16C536.933 1988.98 603.758 1938.46 647.764 1864.03C684.708 1802.09 678.732 1765.69 632.552 1720.05C375.033 1462.53 262.029 1154.49 318.531 790.486C350.585 585.123 444.574 407.467 581.483 253.173C664.063 159.727 762.398 84.21 869.969 21.1885C876.489 17.3855 885.725 16.2989 886.811 6.5197C884.638 1.08681 880.835 2.71668 877.575 2.71668C694.487 2.71668 511.399 -1.08635 328.853 3.80325C153.914 9.23615 2.88005 144.515 3.42334 338.469C4.50991 905.12 3.42334 1471.77 3.42334 2038.96C3.42334 2214.99 137.616 2362.22 313.098 2368.74C461.416 2374.72 609.734 2369.83 758.595 2369.28C769.461 2369.83 780.327 2370.37 791.192 2370.37H1575.7C1771.29 2370.37 1966.87 2371.46 2162.45 2370.37C2343.91 2370.37 2491.14 2223.68 2491.14 2042.77V2039.51V1721.68C2491.14 1714.08 2493.86 1705.93 2488.97 1697.78C2479.19 1698.32 2475.39 1706.47 2469.96 1711.9C2364.56 1817.85 2240.14 1903.14 2103.78 1963.45C1769.66 2110.68 1429.56 2121 1084.57 2002.56C1054.69 1991.7 1022.09 1990.61 991.123 1998.22C945.487 2009.63 900.394 2023.21 855.301 2036.79C722.738 2078.08 587.459 2096.55 448.92 2069.39ZM842.805 1153.95C852.041 1141.99 856.93 1134.93 862.363 1127.87C933.534 1037.68 1004.71 947.496 1075.88 856.767C1096.52 830.689 1117.17 804.068 1130.2 772.557C1145.42 736.7 1129.12 703.016 1092.17 689.977C1075.88 685.088 1058.49 682.915 1041.11 684.001C944.4 683.458 847.151 683.458 750.446 684.001C736.864 684.001 723.281 685.631 710.242 688.891C679.818 696.497 661.346 727.464 668.952 758.432C674.385 779.077 690.684 795.375 711.329 800.265C724.368 803.525 737.95 805.155 751.532 804.611C810.208 805.155 869.426 804.611 928.101 805.155C934.621 805.155 942.77 800.808 947.66 810.587C942.77 817.107 937.88 823.626 932.991 829.603C848.781 936.087 765.115 1043.12 680.905 1149.6C660.26 1176.22 649.394 1205.56 664.606 1238.16C679.818 1270.75 710.786 1276.73 742.296 1278.9C767.288 1280.53 792.822 1279.45 818.357 1279.45C906.37 1279.45 993.839 1279.99 1081.85 1278.9C1128.57 1278.36 1153.57 1250.11 1148.68 1206.65C1144.87 1172.42 1121.51 1154.49 1078.05 1153.95C1001.45 1153.4 924.842 1153.95 842.805 1153.95ZM1473.02 868.176C1405.11 808.958 1330.14 805.155 1256.79 848.618C1167.69 900.773 1135.09 986.07 1145.96 1084.95C1156.28 1177.31 1196.49 1252.82 1293.19 1283.79C1353.5 1303.35 1409.46 1296.29 1458.89 1256.08C1471.93 1245.76 1475.74 1247.94 1484.97 1259.34C1502.9 1282.16 1533.87 1290.85 1561.03 1280.53C1588.2 1272.38 1606.13 1247.39 1606.13 1219.14C1606.67 1110.48 1607.21 1001.83 1606.13 893.167C1605.58 849.704 1564.84 821.996 1522.46 830.689C1499.1 835.579 1486.06 851.334 1473.02 868.176ZM1849.52 1069.74C1847.35 1205.56 1959.81 1308.24 2101.06 1294.11C2230.91 1281.08 2315.12 1183.83 2310.77 1046.37C2306.43 910.553 2205.37 817.65 2066.84 821.997C1936.99 825.8 1845.17 930.111 1849.52 1069.74ZM1801.71 961.622C1801.71 876.325 1802.25 791.572 1801.71 706.276C1801.71 662.813 1774 635.648 1732.71 636.192C1692.51 636.735 1665.89 663.899 1665.34 705.733C1664.8 731.267 1665.34 756.259 1665.34 781.793V1213.71C1665.34 1247.39 1685.99 1276.73 1713.15 1283.79C1750.64 1294.11 1789.21 1271.84 1798.99 1234.35C1800.62 1227.83 1801.71 1221.31 1801.17 1214.25C1802.25 1130.04 1801.71 1045.83 1801.71 961.622Z" fill="#FDFEFE"/>
<path d="M758.052 2369.83C609.734 2369.83 460.873 2374.72 312.555 2369.28C137.072 2362.22 2.87988 2214.99 2.87988 2039.51C2.87988 1472.86 3.96646 906.206 2.87988 339.012C2.87988 145.058 154.458 9.77928 328.853 4.88968C511.398 7.93934e-05 694.487 3.8031 877.575 3.8031C880.835 3.8031 885.181 2.17324 886.811 7.60613C885.725 17.3853 875.945 18.4719 869.969 22.2749C762.398 85.2965 664.063 160.814 581.483 254.259C445.117 408.553 350.585 585.666 318.531 791.572C262.029 1155.03 375.576 1463.62 632.552 1721.14C678.188 1767.32 684.164 1803.18 647.764 1865.11C603.758 1939.54 536.933 1990.07 465.762 2036.25C458.156 2040.59 450.55 2046.03 442.944 2050.92C431.535 2060.7 438.598 2065.59 448.377 2069.93C450.55 2074.82 453.267 2079.17 456.526 2083.51C519.004 2138.93 578.223 2198.15 639.615 2254.65C668.409 2281.27 697.203 2308.98 724.911 2336.69C736.32 2347.01 755.335 2350.27 758.052 2369.83Z" fill="white"/>
<path d="M758.052 2369.83C755.335 2350.81 736.32 2347.55 724.911 2336.14C697.203 2307.89 668.409 2280.73 639.615 2254.11C578.223 2197.6 519.005 2138.39 456.526 2082.97C453.267 2078.62 450.55 2074.28 448.377 2069.39C586.916 2096.55 722.195 2078.08 855.3 2037.33C900.393 2023.75 945.486 2010.17 991.123 1998.76C1022.09 1990.61 1054.69 1992.24 1084.57 2003.11C1429.01 2121.54 1769.11 2110.68 2103.78 1963.99C2240.14 1903.68 2364.56 1818.93 2469.96 1712.99C2475.39 1707.56 2479.19 1699.41 2488.97 1698.86C2493.86 1706.47 2491.14 1714.62 2491.14 1722.77V2040.59C2492.23 2222.05 2346.63 2369.83 2165.17 2371.46H2162.45C1966.87 2372.54 1771.29 2371.46 1575.7 2371.46H790.649C779.783 2370.37 768.917 2369.83 758.052 2369.83Z" fill="white"/>
<path d="M842.805 1153.95C924.842 1153.95 1001.99 1153.4 1078.59 1153.95C1121.51 1154.49 1144.87 1172.42 1149.22 1206.64C1154.11 1249.56 1129.12 1278.36 1082.4 1278.9C994.383 1279.99 906.913 1279.45 818.9 1279.45C793.366 1279.45 768.374 1280.53 742.84 1278.9C711.329 1277.27 680.361 1270.75 665.149 1238.16C649.937 1205.56 660.803 1176.22 681.448 1149.6C765.115 1043.11 849.324 936.087 933.534 829.602C938.424 823.083 943.313 816.563 948.203 810.587C942.77 801.351 935.164 805.698 928.644 805.154C869.969 804.611 810.751 805.154 752.076 804.611C738.493 804.611 724.911 802.981 711.872 800.265C680.905 793.202 661.89 762.235 668.952 731.81C673.842 711.165 690.141 694.323 710.786 689.434C723.825 686.174 737.407 684.544 750.989 684.544C847.694 684.001 944.943 684.001 1041.65 684.544C1059.03 684.001 1075.88 686.174 1092.72 690.52C1129.66 703.016 1145.42 737.243 1130.75 773.1C1117.71 804.068 1097.06 830.689 1076.42 857.31C1005.25 948.039 934.077 1038.23 862.907 1127.87C856.93 1134.93 851.498 1141.99 842.805 1153.95Z" fill="white"/>
<path d="M1473.02 868.176C1486.06 851.334 1499.64 835.578 1521.92 831.232C1564.84 822.539 1605.04 850.247 1605.58 893.71C1607.21 1002.37 1606.67 1111.03 1605.58 1219.68C1605.58 1247.93 1587.11 1272.93 1560.49 1281.08C1533.33 1291.4 1502.36 1283.25 1484.43 1259.89C1475.19 1248.48 1471.39 1246.3 1458.35 1256.63C1408.91 1296.83 1352.95 1303.89 1292.65 1284.34C1195.94 1252.82 1156.28 1177.31 1145.42 1085.49C1134.01 986.069 1167.15 901.316 1256.25 849.161C1330.14 805.154 1405.11 808.957 1473.02 868.176ZM1280.7 1066.48C1281.78 1090.38 1289.39 1113.2 1303.51 1132.21C1332.85 1171.33 1388.81 1179.48 1428.47 1150.14C1434.99 1145.25 1440.97 1139.28 1446.4 1132.21C1476.82 1090.92 1476.82 1023.01 1446.4 981.723C1431.19 960.535 1407.28 948.039 1381.75 947.496C1321.99 943.693 1280.15 989.872 1280.7 1066.48ZM1849.52 1069.74C1845.17 930.111 1936.99 825.799 2067.38 821.996C2205.92 817.65 2306.97 910.552 2311.32 1046.37C2315.66 1183.83 2231.45 1281.08 2101.61 1294.11C1959.81 1308.24 1847.35 1205.56 1849.52 1069.74ZM1985.89 1056.7C1984.8 1083.86 1992.95 1110.48 2009.25 1132.76C2039.13 1171.87 2095.09 1179.48 2134.2 1149.06C2140.18 1144.71 2145.07 1139.28 2149.96 1133.84C2181.47 1092.55 2181.47 1023.01 2150.5 981.723C2135.29 961.078 2111.38 948.039 2085.85 947.496C2027.18 944.236 1985.89 988.786 1985.89 1056.7ZM1801.71 961.621C1801.71 1045.83 1802.25 1130.04 1801.71 1214.25C1802.25 1252.82 1771.83 1284.88 1733.26 1285.96C1726.74 1285.96 1719.67 1285.42 1713.15 1283.79C1685.99 1276.73 1665.34 1247.93 1665.34 1213.71V781.793C1665.34 756.258 1664.8 731.267 1665.34 705.732C1665.89 663.899 1692.51 636.735 1732.71 636.735C1774 636.191 1801.71 663.356 1801.71 706.819C1802.25 791.572 1801.71 876.868 1801.71 961.621Z" fill="white"/>
<path d="M1280.7 1066.48C1280.15 989.873 1321.99 943.693 1381.2 946.953C1406.74 948.039 1430.64 960.535 1445.86 981.723C1476.28 1022.47 1476.28 1090.92 1445.86 1132.21C1416.52 1171.33 1360.56 1179.48 1320.9 1150.14C1314.38 1145.25 1308.4 1139.28 1302.97 1132.21C1289.39 1113.2 1281.78 1090.38 1280.7 1066.48ZM1985.88 1056.7C1985.88 989.329 2027.17 944.236 2085.85 947.496C2111.38 948.039 2135.29 961.078 2150.5 981.723C2181.47 1023.01 2181.47 1093.1 2149.96 1133.84C2119.53 1172.42 2063.03 1178.94 2024.46 1148.51C2018.48 1144.17 2013.59 1138.73 2009.25 1132.76C1992.95 1110.48 1985.34 1083.86 1985.88 1056.7Z" fill="#FDFEFE"/>
<path d="M358.735 5.43311H2141.27C2336.31 5.43311 2494.4 163.53 2494.4 358.571V2004.74C2494.4 2199.78 2336.31 2357.87 2141.27 2357.87H358.735C163.694 2357.87 5.59668 2199.78 5.59668 2004.74V358.571C5.59668 163.53 163.694 5.43311 358.735 5.43311Z" stroke="white" stroke-width="10.8658" stroke-miterlimit="10"/>
</g>
<defs>
<clipPath id="clip0_24_150">
<rect width="2500" height="2372" fill="white"/>
</clipPath>
</defs>
</svg>
