<svg width="20" height="20" viewBox="0 0 20 20" fill="none" xmlns="http://www.w3.org/2000/svg">
<path fill-rule="evenodd" clip-rule="evenodd" d="M18.1805 9.99996C18.1805 9.75889 18.0847 9.52769 17.9143 9.35722C17.7438 9.18676 17.5126 9.09099 17.2715 9.09099L0.910069 9.09099C0.668995 9.09099 0.437794 9.18676 0.267328 9.35722C0.0968647 9.52769 0.00109863 9.75889 0.00109863 9.99996C0.00109863 10.241 0.0968647 10.4722 0.267328 10.6427C0.437794 10.8132 0.668995 10.9089 0.910069 10.9089L17.2715 10.9089C17.5126 10.9089 17.7438 10.8132 17.9143 10.6427C18.0847 10.4722 18.1805 10.241 18.1805 9.99996Z" fill="#29293E"/>
<path fill-rule="evenodd" clip-rule="evenodd" d="M19.733 10.6436C19.8176 10.5592 19.8848 10.4589 19.9306 10.3484C19.9764 10.238 20 10.1196 20 10.0001C20 9.88051 19.9764 9.76212 19.9306 9.65169C19.8848 9.54126 19.8176 9.44095 19.733 9.35652L14.2791 3.90269C14.1085 3.73201 13.877 3.63613 13.6356 3.63613C13.3942 3.63613 13.1627 3.73201 12.992 3.90269C12.8213 4.07337 12.7255 4.30487 12.7255 4.54625C12.7255 4.78762 12.8213 5.01912 12.992 5.1898L17.8041 10.0001L12.992 14.8103C12.8213 14.981 12.7255 15.2125 12.7255 15.4539C12.7255 15.6953 12.8213 15.9268 12.992 16.0974C13.1627 16.2681 13.3942 16.364 13.6356 16.364C13.877 16.364 14.1085 16.2681 14.2791 16.0974L19.733 10.6436Z" fill="#29293E"/>
</svg>
